<svg xmlns="http://www.w3.org/2000/svg" xmlns:xlink="http://www.w3.org/1999/xlink" width="500" zoomAndPan="magnify" viewBox="0 0 375 374.999991" height="500" preserveAspectRatio="xMidYMid meet" version="1.0"><defs><g/><clipPath id="70d236ff06"><path d="M 0 84.203125 L 375 84.203125 L 375 290.453125 L 0 290.453125 Z M 0 84.203125 " clip-rule="nonzero"/></clipPath></defs><g clip-path="url(#70d236ff06)"><path fill="#393e46" d="M 339.449219 84.203125 L 34.902344 84.203125 C 34.902344 99.253906 19.921875 111.21875 0.863281 111.21875 L 0.863281 111.648438 L 0.5625 111.648438 C 0.554688 113.171875 0.535156 114.171875 0.550781 115.515625 C 0.550781 115.671875 0.71875 115.839844 0.871094 115.878906 C 4.488281 116.78125 6.152344 118.96875 7.050781 121.667969 C 7.820312 123.980469 7.691406 126.277344 6.648438 128.53125 C 5.570312 130.871094 3.789062 132.675781 0.535156 133.371094 C 0.535156 134.402344 0.519531 135.425781 0.554688 136.453125 C 0.558594 136.601562 0.765625 136.828125 0.941406 136.871094 C 4.5625 137.78125 6.246094 140.027344 7.058594 142.734375 C 8.085938 146.164062 7.53125 149.421875 4.722656 152.285156 C 3.78125 153.25 2.550781 153.898438 1.09375 154.289062 C 0.863281 154.351562 0.570312 154.621094 0.558594 154.800781 C 0.503906 155.675781 0.515625 156.550781 0.550781 157.425781 C 0.558594 157.59375 0.757812 157.859375 0.933594 157.902344 C 4.007812 158.648438 5.726562 160.460938 6.667969 162.746094 C 8.210938 166.476562 7.8125 170.050781 4.777344 173.277344 C 3.84375 174.269531 2.601562 174.953125 1.089844 175.320312 C 0.878906 175.371094 0.566406 175.570312 0.5625 175.710938 C 0.515625 176.757812 0.535156 177.8125 0.535156 178.863281 C 3.777344 179.535156 5.566406 181.339844 6.621094 183.652344 C 7.882812 186.410156 8.003906 189.199219 6.648438 191.941406 C 5.554688 194.15625 3.910156 195.84375 0.863281 196.488281 L 0.863281 199.84375 C 1.625 200.105469 2.21875 200.3125 2.894531 200.648438 C 5.222656 201.8125 6.402344 203.59375 7.070312 205.648438 C 8.015625 208.5625 7.835938 211.394531 6.042969 214.074219 C 4.898438 215.785156 3.148438 217.039062 0.863281 217.519531 L 0.863281 220.914062 C 5.4375 222.230469 7.207031 225.292969 7.59375 228.941406 C 7.894531 231.78125 6.992188 234.429688 4.59375 236.65625 C 3.671875 237.511719 2.511719 238.132812 1.148438 238.441406 C 0.714844 238.535156 0.53125 238.664062 0.542969 239.027344 C 0.570312 239.878906 0.523438 240.734375 0.558594 241.582031 C 0.566406 241.757812 0.738281 242.042969 0.90625 242.082031 C 3.828125 242.761719 5.539062 244.441406 6.511719 246.589844 C 8.261719 250.464844 8.042969 254.179688 4.824219 257.546875 C 3.804688 258.609375 2.386719 259.285156 0.863281 259.605469 L 0.863281 264.117188 C 19.917969 264.117188 34.902344 276.3125 34.902344 290.796875 L 339.449219 290.796875 C 339.449219 276.3125 354.582031 264.117188 374.402344 264.117188 L 374.402344 259.660156 C 369.828125 258.597656 367.941406 255.910156 367.328125 252.625 C 366.699219 249.273438 367.269531 246.109375 370.402344 243.597656 C 371.203125 242.957031 372.269531 242.574219 373.308594 242.152344 C 373.683594 242 373.863281 241.917969 373.851562 241.554688 C 373.820312 240.703125 373.839844 239.847656 373.804688 238.996094 C 373.792969 238.824219 373.601562 238.546875 373.429688 238.503906 C 370.371094 237.792969 368.636719 236.003906 367.6875 233.75 C 366.097656 229.984375 366.46875 226.363281 369.5625 223.097656 C 370.5 222.113281 371.742188 221.425781 373.261719 221.070312 C 373.480469 221.019531 373.769531 220.769531 373.777344 220.605469 C 373.824219 219.601562 373.800781 218.589844 373.800781 217.539062 C 371.496094 217.113281 369.875 215.996094 368.695312 214.441406 C 367.191406 212.457031 366.679688 210.277344 366.835938 207.984375 C 366.933594 206.515625 367.667969 205.105469 368.488281 203.777344 C 369.671875 201.863281 371.351562 200.433594 374.402344 199.914062 L 374.402344 196.535156 C 369.828125 195.371094 367.839844 192.542969 367.238281 189.132812 C 366.855469 186.941406 367.074219 184.789062 368.304688 182.773438 C 369.476562 180.855469 371.101562 179.40625 373.878906 178.863281 C 373.878906 177.808594 373.851562 176.757812 373.820312 175.707031 C 373.816406 175.585938 373.582031 175.394531 373.421875 175.355469 C 370.164062 174.582031 368.449219 172.632812 367.523438 170.21875 C 366.210938 166.816406 366.570312 163.523438 369.066406 160.484375 C 370.085938 159.242188 371.484375 158.378906 373.273438 157.917969 C 373.5 157.859375 373.769531 157.574219 373.78125 157.386719 C 373.835938 156.535156 373.824219 155.679688 373.785156 154.828125 C 373.777344 154.652344 373.601562 154.367188 373.429688 154.324219 C 369.941406 153.46875 368.222656 151.347656 367.355469 148.742188 C 366.234375 145.382812 366.671875 142.152344 369.246094 139.238281 C 370.246094 138.105469 371.566406 137.300781 373.253906 136.886719 C 373.476562 136.835938 373.769531 136.589844 373.777344 136.425781 C 373.824219 135.417969 373.800781 134.410156 373.800781 133.355469 C 371.472656 132.917969 369.832031 131.78125 368.652344 130.199219 C 367.183594 128.226562 366.660156 126.066406 366.839844 123.800781 C 367.039062 121.308594 368.21875 119.007812 370.59375 117.277344 C 371.558594 116.570312 372.878906 116.113281 374.402344 115.449219 L 374.402344 111.21875 C 354.582031 111.21875 339.449219 99.253906 339.449219 84.203125 Z M 339.449219 84.203125 " fill-opacity="1" fill-rule="nonzero"/></g><path fill="#393e46" d="M 109.667969 182.4375 L 120.558594 132.054688 L 129.570312 132.054688 L 140.429688 182.4375 L 130.382812 182.4375 L 128.3125 171.664062 L 121.734375 171.664062 L 119.773438 182.4375 Z M 122.433594 165.390625 L 127.636719 165.390625 L 125.089844 146.695312 Z M 145.109375 182.4375 L 145.109375 132.054688 L 155.636719 132.054688 C 158.996094 132.054688 161.761719 132.359375 163.933594 132.964844 C 166.109375 133.570312 167.816406 134.570312 169.058594 135.960938 C 170.296875 137.351562 171.15625 139.015625 171.632812 140.957031 C 172.109375 142.898438 172.347656 145.367188 172.347656 148.375 L 172.347656 164.886719 C 172.347656 166.679688 172.289062 168.242188 172.179688 169.574219 C 172.066406 170.910156 171.855469 172.214844 171.546875 173.496094 C 171.242188 174.773438 170.820312 175.855469 170.289062 176.742188 C 169.757812 177.628906 169.070312 178.453125 168.230469 179.21875 C 167.390625 179.984375 166.378906 180.589844 165.195312 181.039062 C 164.007812 181.484375 162.621094 181.832031 161.023438 182.074219 C 159.429688 182.316406 157.59375 182.4375 155.523438 182.4375 Z M 155.691406 175.300781 C 156.660156 175.300781 157.425781 175.285156 157.988281 175.257812 C 158.546875 175.230469 159.105469 175.160156 159.664062 175.046875 C 160.226562 174.9375 160.636719 174.78125 160.898438 174.585938 C 161.160156 174.390625 161.402344 174.105469 161.625 173.734375 C 161.847656 173.359375 161.996094 172.917969 162.058594 172.402344 C 162.125 171.890625 162.15625 171.25 162.15625 170.484375 L 162.15625 143.363281 C 162.15625 141.703125 161.664062 140.601562 160.671875 140.058594 C 159.683594 139.519531 158.023438 139.238281 155.691406 139.21875 Z M 179.125 182.4375 L 179.125 132.054688 L 191.328125 132.054688 L 196.703125 165.644531 L 202.5 132.054688 L 214.28125 132.054688 L 214.28125 182.4375 L 206.78125 182.4375 L 206.558594 147 C 205.996094 150.640625 205.015625 156.546875 203.617188 164.71875 C 202.21875 172.894531 201.238281 178.800781 200.679688 182.4375 L 193.066406 182.4375 L 186.878906 146.777344 L 186.65625 182.4375 Z M 221.707031 182.4375 L 221.707031 132.054688 L 231.894531 132.054688 L 231.894531 182.4375 Z M 244.105469 182.4375 L 244.105469 139.667969 L 236.714844 139.667969 L 236.714844 132.054688 L 261.542969 132.054688 L 261.542969 139.667969 L 254.292969 139.667969 L 254.292969 182.4375 Z M 140.757812 234.65625 L 140.757812 217.722656 C 140.757812 205.820312 145.664062 199.863281 155.480469 199.863281 C 165.316406 199.863281 170.234375 205.820312 170.234375 217.722656 L 170.234375 234.40625 C 170.234375 236.421875 170.082031 238.28125 169.785156 239.992188 C 169.484375 241.699219 168.976562 243.316406 168.257812 244.847656 C 167.539062 246.378906 166.625 247.679688 165.515625 248.753906 C 164.40625 249.824219 163 250.667969 161.300781 251.285156 C 159.605469 251.898438 157.664062 252.207031 155.480469 252.207031 C 153.316406 252.207031 151.382812 251.90625 149.6875 251.300781 C 147.988281 250.691406 146.589844 249.871094 145.488281 248.835938 C 144.386719 247.800781 143.476562 246.53125 142.757812 245.027344 C 142.039062 243.527344 141.527344 241.925781 141.21875 240.230469 C 140.910156 238.53125 140.757812 236.675781 140.757812 234.65625 Z M 160.042969 236.953125 L 160.042969 215.179688 C 160.042969 210.214844 158.523438 207.730469 155.480469 207.730469 C 154.566406 207.730469 153.792969 207.960938 153.15625 208.417969 C 152.523438 208.875 152.054688 209.5 151.757812 210.292969 C 151.457031 211.085938 151.25 211.867188 151.128906 212.644531 C 151.007812 213.417969 150.945312 214.261719 150.945312 215.175781 L 150.945312 236.953125 C 150.945312 241.898438 152.457031 244.371094 155.480469 244.371094 C 158.523438 244.371094 160.042969 241.898438 160.042969 236.953125 Z M 177.011719 251.230469 L 177.011719 200.816406 L 184.347656 200.816406 L 195.402344 227.183594 L 195.402344 200.816406 L 203.855469 200.816406 L 203.855469 251.230469 L 196.800781 251.230469 L 185.773438 223.265625 L 185.773438 251.230469 Z M 211.277344 251.230469 L 211.277344 200.847656 L 232.300781 200.847656 L 232.300781 207.84375 L 221.46875 207.84375 L 221.46875 221.558594 L 229.136719 221.558594 L 229.136719 228.722656 L 221.46875 228.722656 L 221.46875 244.230469 L 232.300781 244.230469 L 232.300781 251.230469 Z M 324.59375 144.609375 C 325.570312 143.492188 326.402344 142.296875 326.402344 140.742188 C 326.402344 136.363281 320.832031 136.074219 317.613281 135.96875 C 318.84375 137.414062 319.566406 138.863281 319.566406 140.777344 C 319.566406 145.335938 315.804688 147 311.828125 147 C 307.523438 147 303.910156 144.683594 303.910156 140.054688 C 303.910156 133.835938 311.429688 133.4375 316.023438 133.4375 C 320.941406 133.4375 328.683594 134.050781 328.683594 140.632812 C 328.683594 142.621094 327.921875 144.539062 326.582031 145.984375 Z M 306.1875 140.234375 C 306.1875 143.199219 308.789062 144.464844 311.71875 144.464844 C 314.46875 144.464844 317.289062 143.632812 317.289062 140.417969 C 317.289062 138.679688 316.097656 137.199219 314.9375 135.96875 C 307.378906 136.003906 306.1875 138.027344 306.1875 140.234375 Z M 316.277344 165.914062 C 312.40625 165.914062 303.910156 166.5625 303.910156 159.1875 C 303.910156 151.808594 312.117188 152.460938 316.277344 152.460938 C 321.953125 152.460938 328.683594 152.171875 328.683594 159.1875 C 328.683594 166.851562 318.988281 165.914062 316.277344 165.914062 Z M 316.277344 154.988281 C 306.800781 154.988281 306.1875 156.726562 306.1875 159.1875 C 306.1875 161.96875 307.308594 163.382812 316.277344 163.382812 C 325.605469 163.382812 326.402344 161.753906 326.402344 159.1875 C 326.402344 154.628906 321.085938 154.988281 316.277344 154.988281 Z M 310.273438 171.300781 L 328.828125 174.882812 L 328.175781 177.304688 L 312.445312 174.195312 L 312.445312 180.738281 L 324.703125 180.738281 L 324.703125 183.164062 L 312.445312 183.164062 L 312.445312 185.078125 L 310.273438 185.078125 L 310.273438 183.164062 L 304.234375 183.164062 L 304.234375 180.738281 L 310.273438 180.738281 Z M 326.1875 201.464844 L 326.1875 191.515625 L 328.355469 191.515625 L 328.355469 204.96875 L 303.765625 194.011719 L 304.742188 191.839844 Z M 324.59375 220.558594 C 325.570312 219.4375 326.402344 218.242188 326.402344 216.6875 C 326.402344 212.3125 320.835938 212.023438 317.617188 211.914062 C 318.84375 213.359375 319.570312 214.808594 319.570312 216.726562 C 319.570312 221.28125 315.808594 222.945312 311.828125 222.945312 C 307.527344 222.945312 303.910156 220.628906 303.910156 216.003906 C 303.910156 209.78125 311.433594 209.382812 316.023438 209.382812 C 320.941406 209.382812 328.683594 209.996094 328.683594 216.578125 C 328.683594 218.570312 327.921875 220.484375 326.585938 221.933594 Z M 306.1875 216.183594 C 306.1875 219.148438 308.792969 220.414062 311.71875 220.414062 C 314.46875 220.414062 317.289062 219.582031 317.289062 216.363281 C 317.289062 214.625 316.097656 213.144531 314.941406 211.914062 C 307.378906 211.949219 306.1875 213.976562 306.1875 216.183594 Z M 316.277344 241.859375 C 312.40625 241.859375 303.910156 242.511719 303.910156 235.132812 C 303.910156 227.753906 312.121094 228.40625 316.277344 228.40625 C 321.957031 228.40625 328.683594 228.117188 328.683594 235.132812 C 328.683594 242.800781 318.988281 241.859375 316.277344 241.859375 Z M 316.277344 230.9375 C 306.804688 230.9375 306.1875 232.671875 306.1875 235.132812 C 306.1875 237.914062 307.308594 239.328125 316.277344 239.328125 C 325.609375 239.328125 326.402344 237.699219 326.402344 235.132812 C 326.402344 230.574219 321.085938 230.9375 316.277344 230.9375 Z M 66.890625 144.609375 C 67.867188 143.492188 68.699219 142.296875 68.699219 140.742188 C 68.699219 136.363281 63.128906 136.074219 59.910156 135.96875 C 61.140625 137.414062 61.863281 138.863281 61.863281 140.777344 C 61.863281 145.335938 58.101562 147 54.125 147 C 49.820312 147 46.203125 144.683594 46.203125 140.054688 C 46.203125 133.835938 53.726562 133.4375 58.320312 133.4375 C 63.238281 133.4375 70.976562 134.050781 70.976562 140.632812 C 70.976562 142.621094 70.21875 144.539062 68.878906 145.984375 Z M 48.480469 140.234375 C 48.480469 143.199219 51.085938 144.464844 54.015625 144.464844 C 56.765625 144.464844 59.585938 143.632812 59.585938 140.417969 C 59.585938 138.679688 58.390625 137.199219 57.234375 135.96875 C 49.675781 136.003906 48.480469 138.027344 48.480469 140.234375 Z M 58.574219 165.914062 C 54.703125 165.914062 46.203125 166.5625 46.203125 159.1875 C 46.203125 151.808594 54.414062 152.460938 58.574219 152.460938 C 64.25 152.460938 70.976562 152.171875 70.976562 159.1875 C 70.976562 166.851562 61.285156 165.914062 58.574219 165.914062 Z M 58.574219 154.988281 C 49.097656 154.988281 48.484375 156.726562 48.484375 159.1875 C 48.484375 161.96875 49.605469 163.382812 58.574219 163.382812 C 67.902344 163.382812 68.699219 161.753906 68.699219 159.1875 C 68.699219 154.628906 63.382812 154.988281 58.574219 154.988281 Z M 52.570312 171.300781 L 71.121094 174.882812 L 70.472656 177.304688 L 54.738281 174.195312 L 54.738281 180.738281 L 67 180.738281 L 67 183.164062 L 54.738281 183.164062 L 54.738281 185.078125 L 52.570312 185.078125 L 52.570312 183.164062 L 46.53125 183.164062 L 46.53125 180.738281 L 52.570312 180.738281 Z M 68.480469 201.464844 L 68.480469 191.515625 L 70.652344 191.515625 L 70.652344 204.96875 L 46.058594 194.011719 L 47.035156 191.839844 Z M 66.890625 220.558594 C 67.867188 219.4375 68.699219 218.242188 68.699219 216.6875 C 68.699219 212.3125 63.128906 212.023438 59.910156 211.914062 C 61.140625 213.359375 61.863281 214.808594 61.863281 216.726562 C 61.863281 221.28125 58.101562 222.945312 54.125 222.945312 C 49.820312 222.945312 46.203125 220.628906 46.203125 216.003906 C 46.203125 209.78125 53.726562 209.382812 58.320312 209.382812 C 63.238281 209.382812 70.976562 209.996094 70.976562 216.578125 C 70.976562 218.570312 70.21875 220.484375 68.878906 221.933594 Z M 48.484375 216.183594 C 48.484375 219.148438 51.085938 220.414062 54.015625 220.414062 C 56.765625 220.414062 59.585938 219.582031 59.585938 216.363281 C 59.585938 214.625 58.390625 213.144531 57.234375 211.914062 C 49.675781 211.949219 48.484375 213.976562 48.484375 216.183594 Z M 58.574219 241.859375 C 54.703125 241.859375 46.203125 242.511719 46.203125 235.132812 C 46.203125 227.753906 54.414062 228.40625 58.574219 228.40625 C 64.25 228.40625 70.976562 228.117188 70.976562 235.132812 C 70.976562 242.800781 61.285156 241.859375 58.574219 241.859375 Z M 58.574219 230.9375 C 49.097656 230.9375 48.484375 232.671875 48.484375 235.132812 C 48.484375 237.914062 49.605469 239.328125 58.574219 239.328125 C 67.902344 239.328125 68.699219 237.699219 68.699219 235.132812 C 68.699219 230.574219 63.382812 230.9375 58.574219 230.9375 Z M 329.957031 265.789062 L 41.894531 265.789062 C 37.5625 265.789062 34.042969 262.265625 34.042969 257.9375 L 34.042969 119.757812 C 34.042969 115.425781 37.5625 111.90625 41.894531 111.90625 L 329.957031 111.90625 C 334.289062 111.90625 337.808594 115.425781 337.808594 119.757812 L 337.808594 257.9375 C 337.8125 262.265625 334.289062 265.789062 329.957031 265.789062 Z M 41.894531 114.160156 C 38.808594 114.160156 36.296875 116.671875 36.296875 119.757812 L 36.296875 257.9375 C 36.296875 261.023438 38.808594 263.53125 41.894531 263.53125 L 329.957031 263.53125 C 333.042969 263.53125 335.554688 261.023438 335.554688 257.9375 L 335.554688 119.757812 C 335.554688 116.671875 333.042969 114.160156 329.957031 114.160156 Z M 295.433594 265.789062 L 78.921875 265.789062 L 78.921875 111.90625 L 295.433594 111.90625 Z M 81.179688 263.53125 L 293.175781 263.53125 L 293.175781 114.160156 L 81.179688 114.160156 Z M 96.480469 128.710938 L 91.3125 128.710938 L 95.496094 131.75 L 93.898438 136.667969 L 98.078125 133.628906 L 102.261719 136.667969 L 100.664062 131.75 L 104.847656 128.710938 L 99.675781 128.710938 L 98.078125 123.796875 Z M 277.582031 128.710938 L 272.410156 128.710938 L 276.59375 131.75 L 274.996094 136.667969 L 279.179688 133.628906 L 283.363281 136.667969 L 281.761719 131.75 L 285.945312 128.710938 L 280.777344 128.710938 L 279.179688 123.796875 Z M 98.078125 255.023438 L 99.675781 250.105469 L 104.847656 250.105469 L 100.664062 247.066406 L 102.261719 242.152344 L 98.078125 245.1875 L 93.898438 242.152344 L 95.496094 247.066406 L 91.3125 250.105469 L 96.480469 250.105469 Z M 279.179688 255.023438 L 280.777344 250.105469 L 285.945312 250.105469 L 281.761719 247.066406 L 283.363281 242.152344 L 279.179688 245.1875 L 274.996094 242.152344 L 276.59375 247.066406 L 272.410156 250.105469 L 277.582031 250.105469 Z M 279.179688 255.023438 " fill-opacity="1" fill-rule="nonzero"/><g fill="#ffffff" fill-opacity="1"><g transform="translate(73.174718, 217.976255)"><g><path d="M 17.875 -21.6875 L 17.875 -10.390625 L 32.75 -10.390625 L 32.75 0 L 3.328125 0 L 3.328125 -53.359375 L 32 -53.359375 L 32 -42.96875 L 17.875 -42.96875 L 17.875 -32.078125 L 29.59375 -32.078125 L 29.59375 -21.6875 Z M 17.875 -21.6875 "/></g></g></g><g fill="#ffffff" fill-opacity="1"><g transform="translate(107.165617, 217.976255)"><g><path d="M 20.9375 -41.46875 L 34.828125 -41.46875 L 34.828125 0 L 20.6875 0 L 20.6875 -4.234375 C 19.695312 -1.410156 17.539062 0 14.21875 0 L 13.546875 0 C 9.722656 0 6.925781 -0.898438 5.15625 -2.703125 C 3.382812 -4.503906 2.5 -7.039062 2.5 -10.3125 L 2.5 -31.171875 C 2.5 -34.429688 3.382812 -36.960938 5.15625 -38.765625 C 6.925781 -40.566406 9.722656 -41.46875 13.546875 -41.46875 L 14.21875 -41.46875 C 16.257812 -41.46875 17.804688 -41.078125 18.859375 -40.296875 C 19.910156 -39.523438 20.601562 -38.335938 20.9375 -36.734375 Z M 18.859375 -10.390625 C 20.078125 -10.390625 20.6875 -11.21875 20.6875 -12.875 L 20.6875 -28.59375 C 20.6875 -30.25 20.078125 -31.078125 18.859375 -31.078125 L 18.28125 -31.078125 C 17.175781 -31.078125 16.625 -30.46875 16.625 -29.25 L 16.625 -12.21875 C 16.625 -11 17.175781 -10.390625 18.28125 -10.390625 Z M 18.859375 -10.390625 "/></g></g></g><g fill="#ffffff" fill-opacity="1"><g transform="translate(145.31188, 217.976255)"><g><path d="M 14.546875 0 C 6.398438 0 2.328125 -3.4375 2.328125 -10.3125 L 2.328125 -12.875 L 16.046875 -12.875 L 16.046875 -10.96875 C 16.046875 -9.75 16.597656 -9.140625 17.703125 -9.140625 L 18.28125 -9.140625 C 19.394531 -9.140625 19.953125 -9.75 19.953125 -10.96875 L 19.953125 -14.296875 C 19.953125 -15.515625 19.394531 -16.125 18.28125 -16.125 L 14.046875 -16.125 C 9.773438 -16.125 6.710938 -16.992188 4.859375 -18.734375 C 3.003906 -20.484375 2.078125 -23.019531 2.078125 -26.34375 L 2.078125 -31.171875 C 2.078125 -38.035156 6.148438 -41.46875 14.296875 -41.46875 L 20.78125 -41.46875 C 28.925781 -41.46875 33 -38.035156 33 -31.171875 L 33 -28.5 L 19.53125 -28.5 L 19.53125 -30.5 C 19.53125 -31.050781 19.40625 -31.492188 19.15625 -31.828125 C 18.90625 -32.160156 18.613281 -32.328125 18.28125 -32.328125 L 17.453125 -32.328125 C 16.347656 -32.328125 15.796875 -31.71875 15.796875 -30.5 L 15.796875 -26.84375 C 15.796875 -25.625 16.347656 -25.015625 17.453125 -25.015625 L 21.6875 -25.015625 C 25.957031 -25.015625 29.019531 -24.140625 30.875 -22.390625 C 32.726562 -20.648438 33.65625 -18.144531 33.65625 -14.875 L 33.65625 -10.3125 C 33.65625 -3.4375 29.582031 0 21.4375 0 Z M 14.546875 0 "/></g></g></g><g fill="#ffffff" fill-opacity="1"><g transform="translate(181.048038, 217.976255)"><g><path d="M 21.03125 -41.46875 L 35.234375 -41.46875 L 26.34375 -0.828125 C 25.570312 2.710938 23.992188 5.519531 21.609375 7.59375 C 19.222656 9.675781 15.617188 10.71875 10.796875 10.71875 L 5.484375 10.71875 L 5.484375 0.5 L 9.96875 0.5 C 11.300781 0.5 12.351562 0.28125 13.125 -0.15625 C 13.90625 -0.601562 14.515625 -1.492188 14.953125 -2.828125 L 15.125 -3.328125 L 9.71875 -3.328125 L 0 -41.46875 L 14.796875 -41.46875 L 18.203125 -16.53125 Z M 21.03125 -41.46875 "/></g></g></g><g fill="#ffffff" fill-opacity="1"><g transform="translate(216.285553, 217.976255)"><g><path d="M 30.5 -53.359375 L 30.5 -42.96875 L 22.6875 -42.96875 L 22.6875 0 L 8.140625 0 L 8.140625 -42.96875 L 0.421875 -42.96875 L 0.421875 -53.359375 Z M 30.5 -53.359375 "/></g></g></g><g fill="#ffffff" fill-opacity="1"><g transform="translate(247.201485, 217.976255)"><g><path d="M 3.078125 -45.625 L 3.078125 -55.59375 L 17.703125 -55.59375 L 17.703125 -45.625 Z M 17.453125 0 L 3.328125 0 L 3.328125 -41.46875 L 17.453125 -41.46875 Z M 17.453125 0 "/></g></g></g><g fill="#ffffff" fill-opacity="1"><g transform="translate(267.97832, 217.976255)"><g><path d="M 23.515625 -21.53125 L 33.828125 0 L 19.53125 0 L 16.703125 -11.96875 L 14.296875 0 L 0.5 0 L 8.5625 -21.28125 L 0 -41.46875 L 14.796875 -41.46875 L 16.703125 -30.75 L 18.609375 -41.46875 L 32.65625 -41.46875 Z M 23.515625 -21.53125 "/></g></g></g></svg>